<svg xmlns="http://www.w3.org/2000/svg" xmlns:xlink="http://www.w3.org/1999/xlink" viewBox="0,0,256,256" width="100px" height="100px" fill-rule="nonzero"><g fill="#ffffff" fill-rule="nonzero" stroke="none" stroke-width="1" stroke-linecap="butt" stroke-linejoin="miter" stroke-miterlimit="10" stroke-dasharray="" stroke-dashoffset="0" font-family="none" font-weight="none" font-size="none" text-anchor="none" style="mix-blend-mode: normal"><g transform="scale(2.56,2.56)"><path d="M50,20c-11.7717,0 -22.44316,3.05525 -30.23828,8.06641c-7.79512,5.01116 -12.76172,12.05741 -12.76172,19.93359c0,7.87619 4.9666,14.92244 12.76172,19.93359c7.79512,5.01116 18.46658,8.06641 30.23828,8.06641c11.7717,0 22.44316,-3.05525 30.23828,-8.06641c7.79512,-5.01116 12.76172,-12.05741 12.76172,-19.93359c0,-7.87619 -4.9666,-14.92244 -12.76172,-19.93359c-7.79512,-5.01116 -18.46658,-8.06641 -30.23828,-8.06641zM50,22c11.42428,0 21.75233,2.98908 29.1582,7.75c7.40587,4.76092 11.8418,11.2145 11.8418,18.25c0,7.0355 -4.43592,13.48908 -11.8418,18.25c-7.40587,4.76092 -17.73393,7.75 -29.1582,7.75c-11.42428,0 -21.75233,-2.98908 -29.1582,-7.75c-7.40587,-4.76092 -11.8418,-11.2145 -11.8418,-18.25c0,-7.0355 4.43592,-13.48908 11.8418,-18.25c7.40587,-4.76092 17.73393,-7.75 29.1582,-7.75zM50,25.40039c-0.03592,0.00067 -0.07178,0.00328 -0.10742,0.00781c-6.09329,0.0098 -11.61772,0.7964 -15.71094,2.19336c-2.05938,0.70284 -3.7623,1.55365 -5.01367,2.59961c-1.25137,1.04596 -2.08008,2.36579 -2.08008,3.84961c0,2.03949 1.4703,3.77351 3.62891,5.16211c2.15861,1.3886 5.11741,2.50809 8.61523,3.2793c0.26891,0.05937 0.5504,0.00524 0.7781,-0.14965c0.2277,-0.15488 0.38146,-0.3968 0.42503,-0.66871c0.68017,-4.26503 2.03751,-7.91966 3.75,-10.4375c1.71249,-2.51784 3.69428,-3.83594 5.71484,-3.83594c2.02056,0 4.00235,1.31809 5.71484,3.83594c1.71249,2.51784 3.06983,6.17247 3.75,10.4375c0.04357,0.27192 0.19733,0.51383 0.42503,0.66871c0.2277,0.15488 0.50919,0.20902 0.7781,0.14965c3.49783,-0.7712 6.45662,-1.8907 8.61523,-3.2793c2.15861,-1.3886 3.62891,-3.12262 3.62891,-5.16211c0,-1.48381 -0.82871,-2.80365 -2.08008,-3.84961c-1.25137,-1.04596 -2.9543,-1.89677 -5.01367,-2.59961c-4.11875,-1.40567 -9.67985,-2.20117 -15.81836,-2.20117zM44.93945,27.73633c-0.80672,0.71386 -1.63664,1.38704 -2.30859,2.375c-1.769,2.60094 -3.03233,6.15205 -3.79687,10.15625c-2.88171,-0.71945 -5.36121,-1.6595 -7.03516,-2.73633c-1.86489,-1.19965 -2.71094,-2.44596 -2.71094,-3.48047c0,-0.75269 0.3969,-1.50865 1.36328,-2.31641c0.96638,-0.80776 2.47083,-1.5897 4.37695,-2.24023c2.66291,-0.90882 6.24928,-1.44192 10.11133,-1.75781zM55.06055,27.73633c3.86205,0.3159 7.44842,0.849 10.11133,1.75781c1.90612,0.65054 3.41057,1.43248 4.37695,2.24023c0.96638,0.80776 1.36328,1.56372 1.36328,2.31641c0,1.03451 -0.84605,2.28082 -2.71094,3.48047c-1.67395,1.07682 -4.15344,2.01688 -7.03516,2.73633c-0.76455,-4.0042 -2.02787,-7.55531 -3.79687,-10.15625c-0.67195,-0.98796 -1.50188,-1.66114 -2.30859,-2.375zM50,32.59961c-1.66336,0 -2.96771,1.25695 -3.92773,2.95703c-0.96003,1.70009 -1.66841,3.98214 -2.09961,6.64063c-0.04387,0.27261 0.02692,0.55122 0.19559,0.76983c0.16867,0.21861 0.42022,0.35775 0.69503,0.38447c1.65047,0.16005 3.36769,0.24805 5.13672,0.24805c1.76903,0 3.48625,-0.08799 5.13672,-0.24805c0.27482,-0.02672 0.52636,-0.16586 0.69503,-0.38447c0.16867,-0.21861 0.23946,-0.49722 0.19559,-0.76983c-0.4312,-2.65849 -1.13958,-4.94054 -2.09961,-6.64062c-0.96003,-1.70009 -2.26437,-2.95703 -3.92773,-2.95703zM50,34.59961c0.60064,0 1.39982,0.54804 2.18555,1.93945c0.65846,1.16606 1.20394,2.90421 1.61328,4.87695c-1.24244,0.09287 -2.49065,0.18359 -3.79883,0.18359c-1.30818,0 -2.55638,-0.09072 -3.79883,-0.18359c0.40935,-1.97275 0.95482,-3.7109 1.61328,-4.87695c0.78572,-1.39141 1.58491,-1.93945 2.18555,-1.93945zM21.01953,35.14258c-0.26041,-0.00363 -0.51197,0.09447 -0.70117,0.27344c-3.74829,3.54422 -6.01367,7.8842 -6.01367,12.58398c0,6.3986 4.16021,12.09357 10.63281,16.12305c6.44684,4.01344 15.2465,6.44935 24.94922,6.46875c0.01539,0.00003 0.02953,0.00391 0.04492,0.00391c0.01819,0.0018 0.03643,0.0031 0.05469,0.00391h0.01367c9.74874,0 18.5899,-2.44709 25.0625,-6.47656c6.4726,-4.02947 10.63281,-9.72445 10.63281,-16.12305c0,-4.69979 -2.26538,-9.03977 -6.01367,-12.58398c-0.25664,-0.2426 -0.6222,-0.33186 -0.96177,-0.23484c-0.33957,0.09702 -0.60279,0.36594 -0.69253,0.7075c-0.55378,2.10905 -2.4309,4.21997 -5.43945,6.01367c-3.00855,1.7937 -7.09902,3.24988 -11.83984,4.13477c-0.48112,0.08979 -0.82658,0.51459 -0.81641,1.00391c0.0075,0.34963 0.02539,0.66424 0.02539,0.95898c0,5.82744 -1.21165,11.09446 -3.10156,14.82031c-1.88991,3.72585 -4.36213,5.7793 -6.85547,5.7793c-2.49334,0 -4.96556,-2.05344 -6.85547,-5.7793c-1.88991,-3.72585 -3.10156,-8.99287 -3.10156,-14.82031c0,-0.29475 0.01791,-0.60936 0.02539,-0.95898c0.01017,-0.48932 -0.33529,-0.91412 -0.81641,-1.00391c-4.74083,-0.88489 -8.83129,-2.34107 -11.83984,-4.13477c-3.00855,-1.7937 -4.88567,-3.90463 -5.43945,-6.01367c-0.11406,-0.43455 -0.5039,-0.73971 -0.95312,-0.74609zM20.68945,37.97852c1.07419,2.16319 3.04794,4.0611 5.69727,5.64063c3.08195,1.83746 7.11135,3.23609 11.66211,4.16602c-0.0014,0.07543 -0.00586,0.13609 -0.00586,0.21484c0,6.10156 1.24082,11.63467 3.31641,15.72656c0.93521,1.84372 2.08297,3.36375 3.36133,4.54102c-7.27642,-0.71199 -13.80932,-2.78376 -18.72461,-5.84375c-6.08515,-3.78827 -9.69141,-8.89342 -9.69141,-14.42383c0,-3.61759 1.60817,-7.01098 4.38477,-10.02148zM79.31055,37.97852c2.77659,3.01051 4.38477,6.40389 4.38477,10.02148c0,5.5304 -3.60626,10.63555 -9.69141,14.42383c-4.91529,3.05999 -11.44815,5.13176 -18.72461,5.84375c1.27835,-1.17726 2.42611,-2.69729 3.36133,-4.54102c2.07559,-4.0919 3.31641,-9.625 3.31641,-15.72656c0,-0.07875 -0.00436,-0.13942 -0.00586,-0.21484c4.55076,-0.92993 8.58016,-2.32856 11.66211,-4.16602c2.64932,-1.57953 4.62308,-3.47743 5.69727,-5.64062zM44.51367,46.76367c-0.54768,0.00647 -0.98826,0.45228 -0.98828,1c0,0.03833 -0.00391,0.11466 -0.00391,0.23633c0,4.07878 0.61858,7.77312 1.66992,10.53711c0.52567,1.38199 1.1551,2.53695 1.93164,3.40039c0.77654,0.86344 1.76336,1.46289 2.875,1.46289c1.11164,0 2.10041,-0.59945 2.87695,-1.46289c0.77654,-0.86344 1.40597,-2.0184 1.93164,-3.40039c1.05134,-2.76399 1.66992,-6.45833 1.66992,-10.53711c0,-0.11333 -0.00321,-0.19531 -0.00391,-0.25c-0.00384,-0.27809 -0.12331,-0.54203 -0.32972,-0.72843c-0.20641,-0.1864 -0.48112,-0.27843 -0.75817,-0.25399c-1.74117,0.15337 -3.54263,0.23242 -5.38477,0.23242c-1.84214,0 -3.64346,-0.07904 -5.38672,-0.23242c-0.03312,-0.00296 -0.06636,-0.00426 -0.09961,-0.00391zM45.58398,48.80859c1.44909,0.10073 2.90772,0.19141 4.41602,0.19141c1.50816,0 2.96605,-0.09069 4.41406,-0.19141c-0.08207,3.53166 -0.61452,6.75126 -1.47656,9.01758c-0.46558,1.22401 -1.01456,2.17938 -1.54883,2.77344c-0.53427,0.59406 -0.98927,0.80078 -1.39062,0.80078c-0.40136,0 -0.8544,-0.20672 -1.38867,-0.80078c-0.53427,-0.59406 -1.08325,-1.54943 -1.54883,-2.77344c-0.86204,-2.26632 -1.39449,-5.48592 -1.47656,-9.01758z"></path></g></g></svg>